<svg xmlns="http://www.w3.org/2000/svg" style="display:none">
  <!-- line-art, stroke 2px, round cap/join, viewBox 24x24, stroke=currentColor.
       Uso: <svg class="ic"><use href="/static/icons.svg#ic-<nome>"/></svg> -->
  <symbol id="ic-gear" viewBox="0 0 24 24" fill="none" stroke="currentColor" stroke-width="2" stroke-linecap="round" stroke-linejoin="round">
    <circle cx="12" cy="12" r="3"/><path d="M19.4 15a1.65 1.65 0 0 0 .33 1.82l.06.06a2 2 0 1 1-2.83 2.83l-.06-.06a1.65 1.65 0 0 0-1.82-.33 1.65 1.65 0 0 0-1 1.51V21a2 2 0 0 1-4 0v-.09A1.65 1.65 0 0 0 9 19.4a1.65 1.65 0 0 0-1.82.33l-.06.06a2 2 0 1 1-2.83-2.83l.06-.06a1.65 1.65 0 0 0 .33-1.82 1.65 1.65 0 0 0-1.51-1H3a2 2 0 0 1 0-4h.09A1.65 1.65 0 0 0 4.6 9a1.65 1.65 0 0 0-.33-1.82l-.06-.06a2 2 0 1 1 2.83-2.83l.06.06a1.65 1.65 0 0 0 1.82.33H9a1.65 1.65 0 0 0 1-1.51V3a2 2 0 0 1 4 0v.09a1.65 1.65 0 0 0 1 1.51 1.65 1.65 0 0 0 1.82-.33l.06-.06a2 2 0 1 1 2.83 2.83l-.06.06a1.65 1.65 0 0 0-.33 1.82V9a1.65 1.65 0 0 0 1.51 1H21a2 2 0 0 1 0 4h-.09a1.65 1.65 0 0 0-1.51 1z"/>
  </symbol>
  <symbol id="ic-back" viewBox="0 0 24 24" fill="none" stroke="currentColor" stroke-width="2.4" stroke-linecap="round" stroke-linejoin="round">
    <path d="M15 5l-7 7 7 7"/>
  </symbol>
  <symbol id="ic-chevron" viewBox="0 0 24 24" fill="none" stroke="currentColor" stroke-width="2.4" stroke-linecap="round" stroke-linejoin="round">
    <path d="M9 6l6 6-6 6"/>
  </symbol>
  <symbol id="ic-search" viewBox="0 0 24 24" fill="none" stroke="currentColor" stroke-width="2.2" stroke-linecap="round" stroke-linejoin="round">
    <circle cx="11" cy="11" r="7"/><line x1="21" y1="21" x2="16.65" y2="16.65"/>
  </symbol>
  <symbol id="ic-chat" viewBox="0 0 24 24" fill="none" stroke="currentColor" stroke-width="2" stroke-linecap="round" stroke-linejoin="round">
    <path d="M21 11.5a8.38 8.38 0 0 1-.9 3.8 8.5 8.5 0 0 1-7.6 4.7 8.38 8.38 0 0 1-3.8-.9L3 21l1.9-5.7a8.38 8.38 0 0 1-.9-3.8 8.5 8.5 0 0 1 4.7-7.6 8.38 8.38 0 0 1 3.8-.9h.5a8.48 8.48 0 0 1 8 8v.5z"/>
  </symbol>
  <symbol id="ic-plan" viewBox="0 0 24 24" fill="none" stroke="currentColor" stroke-width="2" stroke-linecap="round" stroke-linejoin="round">
    <rect x="5" y="3" width="14" height="18" rx="2"/><line x1="9" y1="8" x2="15" y2="8"/><path d="M9 13l1.5 1.5L14 11"/>
  </symbol>
  <symbol id="ic-run" viewBox="0 0 24 24" fill="none" stroke="currentColor" stroke-width="2" stroke-linecap="round" stroke-linejoin="round">
    <path d="M3 12h4l2-7 4 14 2-7h6"/>
  </symbol>
  <symbol id="ic-shield" viewBox="0 0 24 24" fill="none" stroke="currentColor" stroke-width="2" stroke-linecap="round" stroke-linejoin="round">
    <path d="M12 3l7 3v5c0 4-3 7-7 8-4-1-7-4-7-8V6z"/><path d="M9 11.5l2 2 4-4"/>
  </symbol>
  <symbol id="ic-cpu" viewBox="0 0 24 24" fill="none" stroke="currentColor" stroke-width="2" stroke-linecap="round" stroke-linejoin="round">
    <rect x="6" y="6" width="12" height="12" rx="2"/><line x1="9.5" y1="6" x2="9.5" y2="3"/><line x1="14.5" y1="6" x2="14.5" y2="3"/><line x1="9.5" y1="21" x2="9.5" y2="18"/><line x1="14.5" y1="21" x2="14.5" y2="18"/><line x1="21" y1="9.5" x2="18" y2="9.5"/><line x1="21" y1="14.5" x2="18" y2="14.5"/><line x1="6" y1="9.5" x2="3" y2="9.5"/><line x1="6" y1="14.5" x2="3" y2="14.5"/>
  </symbol>
  <symbol id="ic-folder" viewBox="0 0 24 24" fill="none" stroke="currentColor" stroke-width="2" stroke-linecap="round" stroke-linejoin="round">
    <path d="M3 7a2 2 0 0 1 2-2h4l2 2h6a2 2 0 0 1 2 2v7a2 2 0 0 1-2 2H5a2 2 0 0 1-2-2z"/>
  </symbol>
</svg>
